<svg xmlns="http://www.w3.org/2000/svg" viewBox="0 0 1400 900" width="1400" height="900" font-family="Segoe UI, Arial, sans-serif">
  <defs>
    <filter id="shadow" x="-3%" y="-3%" width="106%" height="106%">
      <feDropShadow dx="1" dy="2" stdDeviation="3" flood-opacity="0.10"/>
    </filter>
    <!-- Arrow markers in each flow color -->
    <marker id="arrowGold" markerWidth="10" markerHeight="7" refX="9" refY="3.5" orient="auto">
      <polygon points="0 0, 10 3.5, 0 7" fill="#D4A012"/>
    </marker>
    <marker id="arrowGreen" markerWidth="10" markerHeight="7" refX="9" refY="3.5" orient="auto">
      <polygon points="0 0, 10 3.5, 0 7" fill="#107C10"/>
    </marker>
    <marker id="arrowBlue" markerWidth="10" markerHeight="7" refX="9" refY="3.5" orient="auto">
      <polygon points="0 0, 10 3.5, 0 7" fill="#0078D4"/>
    </marker>
    <marker id="arrowOrange" markerWidth="10" markerHeight="7" refX="9" refY="3.5" orient="auto">
      <polygon points="0 0, 10 3.5, 0 7" fill="#D83B01"/>
    </marker>
  </defs>

  <!-- Background -->
  <rect width="1400" height="900" fill="#FAFBFC" rx="4"/>

  <!-- ==================== TITLE ==================== -->
  <text x="700" y="35" text-anchor="middle" font-size="22" font-weight="700" fill="#23272F">Power BI → Azure SQL via Private Link</text>
  <text x="700" y="57" text-anchor="middle" font-size="13" fill="#888">Resource Group: <tspan font-weight="600" fill="#555">rg-pbi-pl-demo-2</tspan> (centralus)</text>

  <!-- ==================== POWER BI SERVICE ==================== -->
  <!-- Gold diamond shape for PBI -->
  <g filter="url(#shadow)">
    <polygon points="700,78 730,104 700,130 670,104" fill="#D4A012" stroke="#B8860B" stroke-width="1.5"/>
    <text x="700" y="108" text-anchor="middle" font-size="12" font-weight="700" fill="#FFFFFF">PBI</text>
  </g>
  <text x="700" y="150" text-anchor="middle" font-size="13" font-weight="700" fill="#333">Power BI Service</text>
  <text x="700" y="165" text-anchor="middle" font-size="10" fill="#888">(Microsoft Cloud)</text>

  <!-- ==================== AZURE VNET CONTAINER ==================== -->
  <rect x="120" y="230" width="1160" height="330" rx="12" ry="12" fill="#E8F4FD" stroke="#0078D4" stroke-width="2.5" stroke-dasharray="10 5" filter="url(#shadow)"/>
  <!-- VNet icon: small stylized network shape -->
  <g transform="translate(140,240)">
    <polygon points="14,0 28,8 28,24 14,32 0,24 0,8" fill="#0078D4" opacity="0.15" stroke="#0078D4" stroke-width="1"/>
    <polygon points="14,6 22,11 22,21 14,26 6,21 6,11" fill="#0078D4" opacity="0.4"/>
  </g>
  <text x="178" y="261" font-size="13" font-weight="700" fill="#0078D4">Azure VNet</text>
  <text x="282" y="261" font-size="12" fill="#555">pbi-pl-demo-vnet · 10.0.0.0/16</text>

  <!-- ===== GATEWAY SUBNET ===== -->
  <rect x="150" y="290" width="460" height="250" rx="8" ry="8" fill="#F8F9FA" stroke="#5EA4E0" stroke-width="1.5" stroke-dasharray="6 3"/>
  <!-- Subnet icon -->
  <rect x="165" y="300" width="18" height="18" rx="3" fill="#5EA4E0" opacity="0.3" stroke="#5EA4E0" stroke-width="1"/>
  <text x="190" y="314" font-size="12" font-weight="700" fill="#333">gateway subnet</text>
  <text x="310" y="314" font-size="11" fill="#555">· 10.0.2.0/24</text>
  <text x="165" y="332" font-size="9" fill="#999">Delegation: Microsoft.PowerPlatform/vnetaccesslinks</text>

  <!-- VNet Data Gateway Icon: Gold trapezoid/gateway shape -->
  <g transform="translate(345,380)" filter="url(#shadow)">
    <polygon points="6,40 0,0 48,0 42,40" fill="#D4A012" stroke="#B8860B" stroke-width="1.5" stroke-linejoin="round"/>
    <rect x="8" y="10" width="32" height="4" rx="1" fill="#FFFFFF" opacity="0.6"/>
    <rect x="8" y="18" width="32" height="4" rx="1" fill="#FFFFFF" opacity="0.6"/>
    <rect x="8" y="26" width="32" height="4" rx="1" fill="#FFFFFF" opacity="0.6"/>
  </g>
  <text x="369" y="438" text-anchor="middle" font-size="13" font-weight="700" fill="#333">VNet Data Gateway</text>
  <text x="369" y="454" text-anchor="middle" font-size="10" fill="#888">(Power Platform managed)</text>

  <!-- ===== DEFAULT SUBNET ===== -->
  <rect x="680" y="290" width="570" height="250" rx="8" ry="8" fill="#F8F9FA" stroke="#5EA4E0" stroke-width="1.5" stroke-dasharray="6 3"/>
  <!-- Subnet icon -->
  <rect x="695" y="300" width="18" height="18" rx="3" fill="#5EA4E0" opacity="0.3" stroke="#5EA4E0" stroke-width="1"/>
  <text x="720" y="314" font-size="12" font-weight="700" fill="#333">default subnet</text>
  <text x="830" y="314" font-size="11" fill="#555">· 10.0.1.0/24</text>

  <!-- Private Endpoint Icon: Green circle with link symbol -->
  <g transform="translate(930,375)" filter="url(#shadow)">
    <circle cx="24" cy="24" r="24" fill="#107C10" stroke="#0B5E0B" stroke-width="1.5"/>
    <!-- Chain link icon -->
    <ellipse cx="17" cy="24" rx="8" ry="5" fill="none" stroke="#FFFFFF" stroke-width="2.5" transform="rotate(-30,17,24)"/>
    <ellipse cx="31" cy="24" rx="8" ry="5" fill="none" stroke="#FFFFFF" stroke-width="2.5" transform="rotate(-30,31,24)"/>
  </g>
  <text x="954" y="440" text-anchor="middle" font-size="13" font-weight="700" fill="#333">Private Endpoint</text>
  <text x="954" y="456" text-anchor="middle" font-size="10" fill="#555">pbi-pl-demo-pe-sql</text>
  <text x="954" y="472" text-anchor="middle" font-size="10" font-weight="600" fill="#107C10">NIC: 10.0.1.4</text>

  <!-- ==================== AZURE SQL DATABASE ==================== -->
  <!-- Blue cylinder -->
  <g transform="translate(1080,620)" filter="url(#shadow)">
    <rect x="0" y="10" width="60" height="36" fill="#0078D4" stroke="#005A9E" stroke-width="1.5"/>
    <ellipse cx="30" cy="10" rx="30" ry="10" fill="#3A96DD" stroke="#005A9E" stroke-width="1.5"/>
    <ellipse cx="30" cy="46" rx="30" ry="10" fill="#0078D4" stroke="#005A9E" stroke-width="1.5"/>
    <ellipse cx="30" cy="10" rx="30" ry="10" fill="#3A96DD" stroke="#005A9E" stroke-width="1.5"/>
  </g>
  <text x="1110" y="690" text-anchor="middle" font-size="13" font-weight="700" fill="#0078D4">Azure SQL Database</text>
  <text x="1110" y="706" text-anchor="middle" font-size="10" fill="#555">Server: pbi-pl-demo-sql</text>
  <text x="1110" y="720" text-anchor="middle" font-size="10" fill="#555">DB: ContosoRetail</text>
  <text x="1110" y="742" text-anchor="middle" font-size="11" font-weight="700" fill="#D13438">🔒 Public Access: DISABLED</text>

  <!-- ==================== PRIVATE DNS ZONE ==================== -->
  <!-- Orange hexagon -->
  <g transform="translate(280,640)" filter="url(#shadow)">
    <polygon points="24,0 48,14 48,38 24,52 0,38 0,14" fill="#D83B01" stroke="#A52C00" stroke-width="1.5"/>
    <text x="24" y="22" text-anchor="middle" font-size="9" font-weight="700" fill="#FFFFFF">DNS</text>
    <text x="24" y="36" text-anchor="middle" font-size="7" fill="#FFFFFF" opacity="0.8">ZONE</text>
  </g>
  <text x="304" y="712" text-anchor="middle" font-size="13" font-weight="700" fill="#D83B01">Private DNS Zone</text>
  <text x="304" y="728" text-anchor="middle" font-size="10" fill="#888">privatelink.database.windows.net</text>
  <text x="304" y="744" text-anchor="middle" font-size="10" font-weight="600" fill="#D83B01">A record → 10.0.1.4</text>

  <!-- ==================== FLOW ARROWS ==================== -->

  <!-- ❶ Gold: Power BI → VNet Data Gateway -->
  <path d="M700,130 L700,195 L369,195 L369,380" fill="none" stroke="#D4A012" stroke-width="2.5" marker-end="url(#arrowGold)"/>
  <rect x="460" y="175" width="178" height="28" rx="14" fill="white" stroke="#D4A012" stroke-width="1" opacity="0.95"/>
  <text x="549" y="194" text-anchor="middle" font-size="11" font-weight="600" fill="#D4A012">❶ Managed Connection</text>

  <!-- ❷ Green: VNet Data Gateway → Private Endpoint -->
  <path d="M393,400 L650,400 L930,400" fill="none" stroke="#107C10" stroke-width="2.5" marker-end="url(#arrowGreen)"/>
  <rect x="582" y="358" width="220" height="28" rx="14" fill="white" stroke="#107C10" stroke-width="1" opacity="0.95"/>
  <text x="692" y="377" text-anchor="middle" font-size="11" font-weight="600" fill="#107C10">❷ Private Network (within VNet)</text>

  <!-- ❸ Blue: Private Endpoint → Azure SQL -->
  <path d="M954,423 L954,590 L1110,590 L1110,620" fill="none" stroke="#0078D4" stroke-width="2.5" marker-end="url(#arrowBlue)"/>
  <rect x="975" y="574" width="178" height="28" rx="14" fill="white" stroke="#0078D4" stroke-width="1" opacity="0.95"/>
  <text x="1064" y="593" text-anchor="middle" font-size="11" font-weight="600" fill="#0078D4">❸ Private Link Connection</text>

  <!-- ❹ Orange dashed: VNet → Private DNS Zone -->
  <path d="M369,454 L369,600 L304,600 L304,640" fill="none" stroke="#D83B01" stroke-width="2" stroke-dasharray="8 4" marker-end="url(#arrowOrange)"/>
  <rect x="210" y="580" width="210" height="28" rx="14" fill="white" stroke="#D83B01" stroke-width="1" opacity="0.95"/>
  <text x="315" y="599" text-anchor="middle" font-size="11" font-weight="600" fill="#D83B01">❹ DNS Resolution → 10.0.1.4</text>

  <!-- ==================== LEGEND ==================== -->
  <rect x="20" y="780" width="360" height="108" rx="8" ry="8" fill="#F5F5F5" stroke="#CCCCCC" stroke-width="1"/>
  <text x="38" y="802" font-size="12" font-weight="700" fill="#333">Legend</text>

  <!-- Gold arrow legend -->
  <line x1="38" y1="822" x2="88" y2="822" stroke="#D4A012" stroke-width="2.5"/>
  <polygon points="88,819 95,822 88,825" fill="#D4A012"/>
  <text x="103" y="826" font-size="10" fill="#D4A012" font-weight="600">❶ Managed Connection</text>

  <!-- Green arrow legend -->
  <line x1="38" y1="842" x2="88" y2="842" stroke="#107C10" stroke-width="2.5"/>
  <polygon points="88,839 95,842 88,845" fill="#107C10"/>
  <text x="103" y="846" font-size="10" fill="#107C10" font-weight="600">❷ Private Network</text>

  <!-- Blue arrow legend -->
  <line x1="38" y1="862" x2="88" y2="862" stroke="#0078D4" stroke-width="2.5"/>
  <polygon points="88,859 95,862 88,865" fill="#0078D4"/>
  <text x="103" y="866" font-size="10" fill="#0078D4" font-weight="600">❸ Private Link</text>

  <!-- Orange dashed arrow legend -->
  <line x1="38" y1="882" x2="88" y2="882" stroke="#D83B01" stroke-width="2" stroke-dasharray="8 4"/>
  <polygon points="88,879 95,882 88,885" fill="#D83B01"/>
  <text x="103" y="886" font-size="10" fill="#D83B01" font-weight="600">❹ DNS Resolution (dashed)</text>
</svg>
